Coordinates
version=1
nRows=26
nColumns=30
inDegrees=yes

Units are S.I. units (second, meters, Newtons, ...)
Angles are in degrees.

endheader
time	floatyaw	floatroll	floatpitch	floatx	floaty	floatz	pro_sup_l	deviation_l	flexion_l	cmc_flexion_l	cmc_abduction_l	mp_flexion_l	ip_flexion_l	2mcp_flexion_l	2mcp_abduction_l	2pm_flexion_l	2md_flexion_l	3mcp_flexion_l	3mcp_abduction_l	3pm_flexion_l	3md_flexion_l	4mcp_flexion_l	4mcp_abduction_l	4pm_flexion_l	4md_flexion_l	5mcp_flexion_l	5mcp_abduction_l	5pm_flexion_l	5md_flexion_l
-1.495000	-2.809327	-3.522153	94.733797	-0.007440	-0.270372	0.002983	91.836914	0.640471	-1.738894	27.188686	2.151377	-18.293833	-33.219501	19.036404	6.409384	33.192633	20.385157	8.841901	4.573275	35.576689	21.609225	-1.967671	-3.904424	52.536621	33.066097	-21.515297	-8.890170	63.066137	49.511471
-1.485000	-2.809327	-3.522153	94.733797	-0.007431	-0.270349	0.002953	91.848814	0.651850	-1.738772	27.179661	2.143901	-18.274744	-33.183449	19.043182	6.401807	33.200872	20.390219	8.866013	4.577724	35.559938	21.600404	-1.934257	-3.892617	52.523982	33.055992	-21.503125	-8.920697	63.071344	49.507560
-1.475000	-2.809327	-3.522153	94.733797	-0.007421	-0.270333	0.002929	91.859293	0.661674	-1.740981	27.189808	2.136735	-18.267130	-33.175132	19.041855	6.397151	33.220129	20.404518	8.884320	4.584007	35.549218	21.600956	-1.901915	-3.883291	52.508127	33.053687	-21.498667	-8.952597	63.066307	49.532792
-1.465000	-2.809327	-3.522153	94.733797	-0.007412	-0.270325	0.002916	91.867123	0.667166	-1.744331	27.218029	2.131732	-18.273783	-33.195435	19.032982	6.396891	33.247204	20.422138	8.895728	4.591923	35.544435	21.606323	-1.872434	-3.876103	52.488588	33.053275	-21.504103	-8.983059	63.054576	49.576717
-1.455000	-2.809327	-3.522153	94.733797	-0.007407	-0.270324	0.002916	91.870658	0.666364	-1.748212	27.256045	2.132966	-18.292459	-33.236744	19.020656	6.401572	33.276311	20.436777	8.902715	4.600781	35.542400	21.610736	-1.846257	-3.870166	52.465422	33.049884	-21.519710	-9.009791	63.039663	49.626599
-1.445000	-2.809327	-3.522153	94.733797	-0.007405	-0.270328	0.002927	91.868286	0.659304	-1.751744	27.291104	2.144112	-18.316348	-33.285316	19.009538	6.410330	33.302038	20.444147	8.907115	4.609345	35.540769	21.610736	-1.825555	-3.864868	52.441870	33.042131	-21.545627	-9.031246	63.026250	49.672077
-1.435000	-2.809327	-3.522153	94.733797	-0.007407	-0.270336	0.002944	91.859345	0.648157	-1.753282	27.311069	2.165327	-18.337510	-33.325827	19.001959	6.421038	33.321070	20.443362	8.907509	4.615976	35.539915	21.606959	-1.815273	-3.860260	52.424094	33.032475	-21.582139	-9.046447	63.019728	49.707979
-1.425000	-2.809327	-3.522153	94.733797	-0.007412	-0.270341	0.002961	91.844933	0.636278	-1.750813	27.308615	2.191787	-18.350565	-33.345485	18.997055	6.430933	33.331758	20.436654	8.900197	4.618979	35.541520	21.603223	-1.820956	-3.856818	52.417754	33.025580	-21.628009	-9.054761	63.023323	49.734522
-1.415000	-2.809327	-3.522153	94.733797	-0.007419	-0.270344	0.002973	91.828008	0.626764	-1.743071	27.282301	2.215181	-18.353991	-33.336313	18.992202	6.437441	33.332707	20.427635	8.882632	4.617095	35.545733	21.603744	-1.844868	-3.854843	52.423998	33.025654	-21.678282	-9.055933	63.034741	49.755021
-1.405000	-2.809327	-3.522153	94.733797	-0.007429	-0.270341	0.002980	91.812665	0.621357	-1.730617	27.235007	2.227438	-18.348742	-33.295974	18.985467	6.438874	33.322257	20.419106	8.856357	4.610057	35.549801	21.610344	-1.883231	-3.854022	52.437968	33.034073	-21.723794	-9.050274	63.045627	49.772304
-1.395000	-2.809327	-3.522153	94.733797	-0.007445	-0.270336	0.002985	91.802906	0.620220	-1.716173	27.171984	2.224386	-18.336188	-33.228128	18.977355	6.434823	33.299445	20.411610	8.827276	4.598949	35.549372	21.621232	-1.926620	-3.853519	52.451029	33.048419	-21.753536	-9.038689	63.045394	49.785945
-1.385000	-2.809327	-3.522153	94.733797	-0.007468	-0.270333	0.002991	91.801403	0.622486	-1.703930	27.100148	2.207243	-18.317410	-33.142537	18.970904	6.426198	33.265480	20.403428	8.803206	4.586113	35.541330	21.631849	-1.963397	-3.852521	52.455226	33.063423	-21.758960	-9.022443	63.027356	49.792242
-1.375000	-2.809327	-3.522153	94.733797	-0.007495	-0.270336	0.003000	91.808686	0.627027	-1.698124	27.028250	2.181520	-18.294038	-33.054150	18.970211	6.414977	33.224321	20.391923	8.790457	4.574502	35.525930	21.637066	-1.984246	-3.850769	52.447110	33.073371	-21.737762	-9.002952	62.992813	49.787124
-1.365000	-2.809327	-3.522153	94.733797	-0.007522	-0.270348	0.003012	91.823030	0.632867	-1.701430	26.966268	2.154350	-18.269144	-32.979998	18.978125	6.403694	33.181894	20.375422	8.791307	4.566713	35.506883	21.633491	-1.985501	-3.848656	52.428762	33.074654	-21.694940	-8.981826	62.950092	49.769989
-1.355000	-2.809327	-3.522153	94.733797	-0.007546	-0.270370	0.003026	91.841077	0.639141	-1.713813	26.922994	2.131639	-18.246810	-32.933826	18.994143	6.394624	33.144565	20.354554	8.803271	4.564116	35.489644	21.620844	-1.970051	-3.846894	52.405881	33.066998	-21.640873	-8.961060	62.909434	49.745566
-1.345000	-2.809327	-3.522153	94.733797	-0.007562	-0.270400	0.003039	91.858861	0.644890	-1.732322	26.902709	2.116120	-18.230517	-32.920526	19.013713	6.388846	33.117560	20.332319	8.820101	4.566507	35.479073	21.601994	-1.945873	-3.846146	52.384523	33.052898	-21.587954	-8.942950	62.877707	49.722133
-1.335000	-2.809327	-3.522153	94.733797	-0.007572	-0.270431	0.003051	91.872818	0.649018	-1.752020	26.903247	2.106970	-18.221775	-32.933778	19.029750	6.385710	33.103581	20.312992	8.834101	4.572414	35.477532	21.581963	-1.923011	-3.846933	52.368451	33.035991	-21.547520	-8.929503	62.856642	49.706966
-1.325000	-2.809327	-3.522153	94.733797	-0.007576	-0.270460	0.003062	91.880530	0.650530	-1.767790	26.917192	2.101194	-18.220192	-32.959271	19.035993	6.383226	33.101819	20.300627	8.839049	4.579823	35.484078	21.566432	-1.910041	-3.849723	52.358291	33.019708	-21.527706	-8.921658	62.845107	49.701964
-1.315000	-2.809327	-3.522153	94.733797	-0.007577	-0.270481	0.003074	91.881170	0.648895	-1.776288	26.935817	2.096246	-18.224830	-32.982399	19.030443	6.379357	33.107987	20.297942	8.832699	4.586884	35.495070	21.560204	-1.911112	-3.854861	52.352457	33.006974	-21.531887	-8.918926	62.842568	49.702492
-1.305000	-2.809327	-3.522153	94.733797	-0.007578	-0.270493	0.003086	91.875685	0.644287	-1.777225	26.953360	2.092434	-18.235533	-32.995940	19.016777	6.373454	33.115917	20.305800	8.817814	4.592329	35.505945	21.565855	-1.924536	-3.862177	52.348921	33.000510	-21.557487	-8.919827	62.850366	49.700283
-1.295000	-2.809327	-3.522153	94.733797	-0.007576	-0.270497	0.003098	91.866671	0.637586	-1.773374	26.969080	2.093395	-18.252968	-33.002881	19.002793	6.366953	33.120286	20.323035	8.801207	4.595599	35.513244	21.582721	-1.943504	-3.870537	52.346660	33.002647	-21.595824	-8.922884	62.869883	49.688442
-1.285000	-2.809327	-3.522153	94.733797	-0.007571	-0.270494	0.003110	91.857790	0.630112	-1.769272	26.986108	2.103970	-18.277393	-33.012753	18.996715	6.362821	33.118976	20.346396	8.791153	4.596818	35.515702	21.606524	-1.958726	-3.877835	52.345926	33.014107	-21.634039	-8.927556	62.899556	49.665444
-1.275000	-2.809327	-3.522153	94.733797	-0.007560	-0.270487	0.003120	91.852542	0.623152	-1.769157	27.008142	2.126889	-18.307287	-33.034271	19.003575	6.364018	33.113480	20.370756	8.794236	4.596681	35.513827	21.630138	-1.962056	-3.881697	52.347307	33.032599	-21.659302	-8.934412	62.933565	49.636136
-1.265000	-2.809327	-3.522153	94.733797	-0.007545	-0.270478	0.003126	91.852590	0.617415	-1.775106	27.036083	2.160729	-18.339068	-33.069176	19.023710	6.371811	33.106896	20.390024	8.812951	4.596176	35.508497	21.645743	-1.949638	-3.880644	52.350370	33.052906	-21.663727	-8.944284	62.963346	49.609864
-1.255000	-2.809327	-3.522153	94.733797	-0.007528	-0.270470	0.003129	91.856535	0.612774	-1.786260	27.066442	2.200635	-18.368128	-33.110602	19.053837	6.384921	33.100933	20.398938	8.844965	4.596152	35.499838	21.647916	-1.923229	-3.875042	52.353108	33.069254	-21.647309	-8.956917	62.980903	49.597176
-1.245000	-2.809327	-3.522153	94.733797	-0.007514	-0.270464	0.003128	91.860248	0.608546	-1.799448	27.092294	2.240919	-18.390457	-33.146129	19.089280	6.400035	33.094326	20.395200	8.884067	4.596872	35.487415	21.636327	-1.889193	-3.867165	52.352773	33.078660	-21.617115	-8.970259	62.981938	49.606295
